<svg  width="240px" height="50px" viewBox="0 0 192 30" version="1.1" xmlns="http://www.w3.org/2000/svg" xmlns:xlink="http://www.w3.org/1999/xlink">
    <g stroke="none" stroke-width="1" fill="none" fill-rule="evenodd">
        <g transform="translate(-279.000000, -75.000000)" fill="#F773C3">
            <g>
                <g transform="translate(279.000000, 75.000000)">
                    <path d="M6.04902253,11.7059091 L6.64518023,11.7059091 C9.20511139,10.6306818 11.449229,8.84295455 13.3782153,6.34272727 L12.4839787,6.34272727 C8.49777096,6.61136364 6.49307134,7.20727273 6.46987985,8.13045455 L6.04902253,11.7059091 Z M13.6408248,7.53454545 C13.0098798,8.65545455 10.4676834,10.3443182 6.01423529,12.5997727 L5.71615645,12.8970455 L5.71615645,13.195 L6.31231414,13.195 C9.24603755,12.2956818 11.788234,10.4090909 13.9389036,7.53454545 L13.6408248,7.53454545 Z M1.5253179,13.7915909 L1.50826533,14.0888636 L1.78860951,14.3875 L1.49053066,14.6847727 L1.45574343,15.2806818 L2.05190113,15.2806818 L2.12147559,13.7915909 L1.5253179,13.7915909 Z M3.45430413,0.0856818182 L3.73464831,0.383636364 L3.73464831,0.681590909 L4.03272716,0.383636364 L5.5231214,0.383636364 C5.92078723,0.383636364 6.10768335,0.880681818 6.08449186,1.87340909 L6.38257071,1.87340909 C6.4057622,1.27681818 6.61584981,0.979545455 7.01351564,0.979545455 C7.41118148,0.979545455 7.5980776,1.27681818 7.57420401,1.87340909 L9.67849061,1.57545455 L12.8700488,2.17136364 L14.0623642,1.87340909 C15.5814068,1.87340909 16.7505307,2.66772727 17.5690538,4.25704545 L17.2532403,6.34272727 L17.5335845,6.64 L17.5335845,6.93863636 L16.8849049,8.72568182 L16.586826,8.72568182 L16.6045607,8.13045455 L16.3064819,8.13045455 C14.7635657,11.8688636 12.5890225,14.4509091 9.78421652,15.8765909 L4.94469837,17.9629545 L4.78645056,23.0268182 L5.03200751,24.5172727 C4.63434168,24.5172727 4.10298373,25.51 3.43656946,27.4968182 L3.13849061,27.7947727 L2.84041176,27.7947727 L0.491250313,26.6029545 L0.876638298,24.22 L0.0178710889,23.0268182 L0.753859825,18.8561364 L0.455780976,18.5581818 L1.54305257,12.8970455 L1.24497372,12.5997727 L1.56010513,12.3011364 L2.15626283,12.3011364 L2.12147559,13.4929545 L2.41955444,13.4929545 L2.47207635,12.0038636 L2.20946683,11.1093182 L2.80562453,11.1093182 L2.84041176,9.61954545 L2.26198874,9.02363636 L2.2265194,10.2154545 L1.92844055,10.2154545 C1.97550563,8.95409091 1.41413517,7.96136364 0.245693367,7.23590909 L0.000136420526,5.44886364 L0.0526583229,4.25704545 C2.65897247,3.19409091 3.96860951,2.49863636 3.98020526,2.17136364 L3.99793992,1.87340909 L3.4195169,1.27681818 L3.12143805,1.57545455 L2.84041176,0.383636364 L3.15622528,0.0856818182 L3.45430413,0.0856818182 Z" id="Fill-1"></path>
                    <path d="M22.026117,6.76272727 L21.9210732,8.84909091 L22.21847,8.84909091 L22.3241959,6.76272727 L22.026117,6.76272727 Z M21.5697904,9.74227273 L21.4647466,11.53 L21.7621433,11.53 L21.8678692,9.74227273 L21.5697904,9.74227273 Z M21.1141458,12.4245455 L21.0261546,14.2115909 L21.3242334,14.2115909 L21.4122247,12.4245455 L21.1141458,12.4245455 Z M21.0609418,24.3420455 L20.9736327,25.8318182 L21.587525,25.2359091 L21.6570995,24.3420455 L21.0609418,24.3420455 Z M25.3220369,1.40022727 C25.2756539,1.99613636 25.6494462,2.29409091 26.4440957,2.29409091 L26.9870494,3.48522727 L26.6726001,3.78386364 L26.9699969,3.78386364 C25.5437203,7.99 24.6733573,12.8568182 24.3575438,18.3829545 L24.2525,20.1706818 L24.5505788,20.4693182 L24.5335263,20.7665909 L24.2177128,21.0652273 L24.5151095,21.0652273 L24.2006602,21.3625 L24.3745964,23.4481818 L24.3404912,24.0440909 C23.2764111,25.3286364 22.7218617,26.3220455 22.6747966,27.0236364 L21.4824812,27.0236364 L20.0446089,26.4277273 L20.4654662,24.3420455 L19.3256727,23.1502273 L19.8693085,18.6802273 L20.1673874,13.3177273 L20.816067,12.4245455 L20.8863235,11.2327273 L20.6052972,10.9340909 L20.6230319,10.6368182 L21.2185075,10.6368182 L21.2369243,10.3381818 L20.9565801,10.0409091 L22.1659481,4.37909091 L21.8678692,4.37909091 L22.1830006,4.08113636 L22.2709919,2.29409091 L21.9906477,1.99613636 L22.0083824,1.69818182 L25.3220369,1.40022727 Z" id="Fill-4"></path>
                    <path d="M41.1236946,13.6508636 C41.638,13.6508636 42.0349837,14.4458636 42.31601,16.0345 L42.31601,16.3331364 L42.0179312,16.3331364 L41.1236946,13.6508636 Z M29.7973805,8.88427273 L29.7973805,9.18154545 L30.0947772,9.48018182 L29.7973805,9.77745455 L29.7973805,10.3733636 L30.0947772,10.3733636 L30.3928561,9.18154545 L30.0947772,8.88427273 L29.7973805,8.88427273 Z M33.9698023,1.43540909 L36.0556721,3.22313636 C36.0556721,2.62654545 36.254164,2.32927273 36.6518298,2.32927273 L36.9499086,2.32927273 L41.1236946,13.0549545 L41.1236946,13.6508636 L40.8256158,13.6508636 L40.228776,11.8631364 L39.9313792,11.8631364 L39.9313792,12.4590455 L42.0179312,17.5242727 L42.31601,17.5242727 C43.1099775,12.3601818 44.2559099,6.967 45.751761,1.34745455 L46.6466796,1.94336364 L47.5409161,1.64609091 L49.3287071,2.53927273 L49.3287071,2.83790909 C48.7325494,2.83790909 48.4351527,3.23472727 48.4351527,4.02904545 L48.7325494,4.02904545 L49.0306283,4.327 L49.3287071,4.327 L49.6274681,2.83790909 L50.2229437,2.83790909 L50.2229437,3.13518182 L49.9248648,3.43381818 L50.2229437,3.73109091 L50.2229437,4.02904545 C48.7264105,8.62109091 47.3826683,15.2047273 46.1903529,23.7806364 L45.5948773,23.7806364 L46.1903529,19.0140455 C45.7933692,19.0140455 45.1965294,20.9013182 44.402562,24.6745 C43.6658911,25.2710909 42.9701464,25.5683636 42.31601,25.5683636 L42.31601,26.1649545 L42.0179312,26.1649545 C42.0179312,25.7674545 41.6202653,25.5683636 40.8256158,25.5683636 L40.8256158,23.4833636 C40.8256158,22.5840455 38.8372866,17.6176818 34.8633567,8.58563636 L34.5659599,8.58563636 C33.7713104,12.1263182 33.0755657,16.8935909 32.4787259,22.8874545 L32.1813292,22.5895 C30.9890138,22.9399545 30.3928561,23.437 30.3928561,24.0792727 L29.7973805,24.0792727 C29.3990325,23.3313182 29.2005407,22.0406364 29.2005407,20.2058636 L28.9024618,20.2058636 L28.9024618,22.8874545 L28.3063041,22.8874545 L28.0075432,21.3976818 C28.0075432,15.9990455 29.2005407,9.44472727 31.5851715,1.73336364 L33.9698023,1.43540909 Z" id="Fill-6"></path>
                    <path d="M67.1461145,5.11545455 L65.9544812,6.01 L65.6564024,6.30727273 L65.6564024,6.60590909 L65.9544812,6.60590909 L67.1461145,5.71136364 L67.4441934,5.41340909 L67.4441934,5.11545455 L67.1461145,5.11545455 Z M68.6371909,0.348181818 L68.9352697,0.646136364 L68.9352697,0.944772727 L68.6371909,1.24204545 L68.3384299,0.944772727 L68.0410332,0.944772727 L65.3583235,2.7325 L65.0595626,2.7325 C65.0595626,2.20545455 66.251878,1.41181818 68.6371909,0.348181818 L68.6371909,0.348181818 Z M64.7621658,2.7325 L65.0595626,2.7325 L63.8672472,3.92431818 L63.5698504,3.92431818 L64.7621658,2.7325 Z M63.2717716,22.9927273 C63.7744812,22.9927273 64.2710519,23.9861364 64.7621658,25.9722727 L64.7621658,26.2695455 L64.464087,26.2695455 L63.2717716,22.9927273 Z M62.0794562,22.0988636 L62.377535,22.0988636 L63.2717716,22.9927273 L62.9736927,22.9927273 L62.0794562,22.0988636 Z M63.2717716,3.92431818 L63.5698504,3.92431818 L61.7813773,5.41340909 L61.4826164,5.41340909 L63.2717716,3.92431818 Z M54.6268029,4.22159091 L54.3294061,6.01 L54.3294061,7.20181818 L54.6268029,7.20181818 L54.9255638,4.51954545 L54.9255638,4.22159091 L54.6268029,4.22159091 Z M57.0121158,0.944772727 L57.3101946,3.62568182 C57.7071783,3.62568182 58.0059393,3.02977273 58.2044312,1.83795455 L58.50251,1.83795455 L58.801271,3.02977273 L57.9063523,7.79704545 L61.1852196,5.41340909 L61.4826164,5.41340909 L57.9063523,8.69090909 L57.9063523,8.98954545 L64.7621658,3.92431818 L65.0595626,4.22159091 C67.7361333,2.03704545 69.5252885,0.944772727 70.425664,0.944772727 L70.7230607,0.944772727 L71.0218217,2.13659091 L68.6371909,4.51954545 L68.9352697,4.51954545 C69.3322534,3.72522727 69.9284111,3.32840909 70.7230607,3.32840909 L71.0218217,3.62568182 L71.0218217,3.32840909 L70.7230607,3.02977273 L71.0218217,2.7325 L71.9153761,2.7325 L72.214137,3.62568182 C70.7176039,4.32727273 67.2402447,6.90931818 61.7813773,11.3725 C63.1251195,14.3056818 65.5104324,18.2779545 68.9352697,23.29 L68.9352697,23.8859091 L68.6371909,25.9722727 L68.3384299,25.6736364 L68.0410332,25.6736364 L67.7429543,26.8654545 L66.5506389,26.8654545 L66.5506389,26.2695455 L66.251878,26.2695455 L66.251878,26.8654545 L65.6564024,26.8654545 C65.6564024,26.1645455 63.4702635,22.4895455 59.0986677,15.8418182 L58.50251,14.0540909 L57.0121158,14.3520455 C56.7549631,19.1309091 56.1301571,22.1104545 55.1363335,23.29 L55.1363335,23.5886364 L52.1555451,23.29 L52.1555451,22.3968182 L52.4536239,20.3111364 C51.8574662,20.3111364 51.5587053,19.7145455 51.5587053,18.5234091 C51.8867966,16.5372727 52.2135238,15.5438636 52.540933,15.5438636 L52.2428542,15.2452273 C52.8390119,9.77772727 53.4351696,6.50022727 54.0313273,5.41340909 L53.7332484,4.51954545 L54.6268029,2.13659091 L54.6268029,1.83795455 L54.3294061,1.54068182 L54.3294061,1.24204545 L54.9255638,1.24204545 L54.9255638,3.32840909 L55.2236427,3.32840909 L55.5217215,2.43386364 L55.2236427,2.13659091 L55.2236427,1.83795455 C55.4228166,1.24204545 56.0189743,0.944772727 57.0121158,0.944772727 L57.0121158,0.944772727 Z" id="Fill-8"></path>
                    <path d="M92.9158154,11.7776591 L93.5119731,11.7776591 C96.0719043,10.7024318 98.3160219,8.91538636 100.245008,6.41447727 L99.3507716,6.41447727 C95.3645638,6.68311364 93.3598642,7.27902273 93.3366727,8.20220455 L92.9158154,11.7776591 Z M100.507618,7.60629545 C99.8766727,8.72788636 97.3344762,10.4160682 92.8810282,12.6715227 L92.5829493,12.9694773 L92.5829493,13.2674318 L93.179107,13.2674318 C96.1128304,12.3674318 98.6550269,10.4808409 100.805696,7.60629545 L100.507618,7.60629545 Z M88.3921108,13.8633409 L88.3750582,14.1606136 L88.6554024,14.45925 L88.3573235,14.7565227 L88.3225363,15.3524318 L88.918694,15.3524318 L88.9882685,13.8633409 L88.3921108,13.8633409 Z M90.321097,0.157431818 L90.6014412,0.455386364 L90.6014412,0.753340909 L90.89952,0.455386364 L92.3899143,0.455386364 C92.7875801,0.455386364 92.9744762,0.952431818 92.9512847,1.94515909 L93.2493636,1.94515909 C93.2725551,1.34925 93.4826427,1.05129545 93.8803085,1.05129545 C94.2779743,1.05129545 94.4648705,1.34925 94.4409969,1.94515909 L96.5452835,1.64788636 L99.7368417,2.24311364 L100.928475,1.94515909 C102.448882,1.94515909 103.616641,2.73947727 104.435165,4.32879545 L104.120715,6.41447727 L104.400377,6.71243182 L104.400377,7.01038636 L103.751698,8.79811364 L103.452937,8.79811364 L103.472036,8.20220455 L103.173275,8.20220455 C101.630359,11.9406136 99.4558154,14.5233409 96.6510094,15.9490227 L91.8114912,18.0347045 L91.6532434,23.09925 L91.8988004,24.5890227 C91.5011345,24.5890227 90.9697766,25.5824318 90.3033623,27.5685682 L90.0052835,27.8672045 L89.7072046,27.8672045 L87.3580432,26.6747045 L87.7434312,24.29175 L86.884664,23.09925 L87.6206527,18.9278864 L87.3225738,18.6306136 L88.4098454,12.9694773 L88.1117666,12.6715227 L88.426898,12.3728864 L89.0230557,12.3728864 L88.9882685,13.5653864 L89.2863473,13.5653864 L89.3388692,12.0756136 L89.0762597,11.18175 L89.6724174,11.18175 L89.7072046,9.69129545 L89.1287816,9.09606818 L89.0933123,10.2872045 L88.7952334,10.2872045 C88.8422985,9.02584091 88.280928,8.03311364 87.1124862,7.30765909 L86.8669293,5.52061364 L86.9194512,4.32879545 C89.5257653,3.26584091 90.8354024,2.57038636 90.8469981,2.24311364 L90.8647328,1.94515909 L90.2863098,1.34925 L89.9882309,1.64788636 L89.7072046,0.455386364 L90.0230181,0.157431818 L90.321097,0.157431818 Z" id="Fill-10"></path>
                    <path d="M122.077749,22.3458409 L122.077749,22.94175 L122.375828,24.1335682 L122.673907,24.1335682 L122.673907,23.5376591 L122.375828,22.3458409 L122.077749,22.3458409 Z M119.096961,23.2397045 L119.096961,23.8362955 L119.990515,23.5376591 L119.990515,22.94175 L119.096961,23.2397045 Z M117.904645,20.2594773 L118.500803,20.2594773 L118.500803,22.0478864 L118.202042,22.0478864 L117.904645,20.2594773 Z M113.731541,13.7051591 L113.731541,14.0037955 L114.327699,14.0037955 C116.116172,13.8047045 117.010409,13.50675 117.010409,13.10925 L116.71233,13.10925 L113.731541,13.7051591 Z M115.520014,6.85288636 L113.135384,13.10925 L113.731541,13.10925 C115.718506,13.10925 116.811235,12.5140227 117.010409,11.3215227 L115.818093,6.85288636 L115.520014,6.85288636 Z M112.837305,8.63993182 L112.241147,10.7256136 L111.94375,10.4283409 L111.644989,10.4283409 L111.94375,11.6201591 L112.241147,11.6201591 L113.135384,8.93788636 L113.135384,8.63993182 L112.837305,8.63993182 Z M111.347593,12.5140227 L111.048832,13.7051591 L111.347593,13.7051591 L111.644989,13.4072045 L111.644989,12.5140227 L111.347593,12.5140227 Z M109.558437,11.3215227 L109.260359,11.6201591 L109.260359,12.2160682 L109.558437,12.2160682 L109.856516,11.3215227 L109.558437,11.3215227 Z M108.664201,12.8119773 L108.366122,14.0037955 L108.664201,14.0037955 L109.260359,12.8119773 L108.664201,12.8119773 Z M117.308487,-6.81818183e-05 C117.436723,0.595840909 118.231372,0.893795455 119.693118,0.893795455 L122.077749,11.3215227 L124.164301,11.3215227 L124.164301,11.6201591 L122.375828,11.9181136 L122.375828,12.2160682 C122.971986,12.2160682 123.270064,12.4151591 123.270064,12.8119773 L125.654013,12.8119773 L125.654013,13.10925 C125.654013,13.5537955 124.661554,13.9506136 122.673907,14.3010682 L123.270064,16.0887955 L122.971986,16.9833409 L123.270064,18.7703864 L122.971986,19.0683409 L123.270064,19.0683409 L122.971986,19.3669773 L123.270064,22.94175 L123.270064,24.7294773 L122.971986,24.4322045 L122.673907,24.4322045 L123.568143,28.9008409 L122.971986,28.9008409 C122.971986,28.30425 122.773494,28.0069773 122.375828,28.0069773 L122.375828,28.30425 L122.673907,29.1987955 L122.375828,29.1987955 L122.077749,28.9008409 L121.77967,28.9008409 C121.77967,29.49675 121.580496,29.7947045 121.18283,29.7947045 L119.693118,24.7294773 L119.394357,24.7294773 L119.394357,25.9206136 L119.096961,25.9206136 L118.500803,22.3458409 L119.394357,22.94175 L119.394357,22.6437955 C119.230653,20.8553864 118.933256,19.9622045 118.500803,19.9622045 L118.7982,19.66425 L118.7982,18.7703864 L118.202042,18.7703864 L118.202042,19.66425 L117.904645,19.66425 L117.904645,18.4724318 L118.202042,18.1744773 L117.904645,18.1744773 L117.606566,18.4724318 L117.606566,17.2806136 L117.904645,17.2806136 L118.202042,17.57925 L118.500803,17.57925 L118.202042,17.2806136 L118.202042,15.4928864 L111.644989,16.9833409 L111.644989,17.57925 L113.731541,16.9833409 L114.923857,17.2806136 L116.414251,16.9833409 L116.414251,17.57925 C112.241147,18.3265227 110.155277,19.3199318 110.155277,20.5581136 C109.628694,22.7433409 109.032536,24.1335682 108.366122,24.7294773 L108.366122,25.3253864 L107.471885,25.3253864 L107.173807,25.0274318 L106.875728,25.0274318 L106.875728,25.3253864 L105.981491,24.7294773 L106.577649,22.94175 L106.27957,22.94175 C105.684094,22.94175 105.385334,23.7360682 105.385334,25.3253864 L104.789176,24.7294773 L105.087937,22.94175 L104.193018,22.0478864 L109.260359,9.83175 L109.558437,9.83175 C109.558437,10.4283409 109.757611,10.7256136 110.155277,10.7256136 L110.452674,9.23584091 L110.155277,9.53447727 L109.856516,9.53447727 L109.856516,8.34197727 L110.155277,6.85288636 L110.452674,7.15084091 L110.751435,7.15084091 L110.452674,6.85288636 L110.452674,6.55493182 L111.048832,5.36311364 L111.347593,5.36311364 L111.644989,5.66038636 L111.94375,5.66038636 L111.94375,5.36311364 C111.94375,4.96629545 111.644989,4.76720455 111.048832,4.76720455 L112.539226,0.595840909 L113.731541,0.595840909 L113.433462,0.893795455 L113.433462,1.19175 C114.812674,0.397431818 116.103894,-6.81818183e-05 117.308487,-6.81818183e-05 L117.308487,-6.81818183e-05 Z" id="Fill-12"></path>
                    <path d="M140.597381,13.7225455 C141.111686,13.7225455 141.50867,14.5175455 141.789696,16.1061818 L141.789696,16.4048182 L141.491618,16.4048182 L140.597381,13.7225455 Z M129.271067,8.95595455 L129.271067,9.25322727 L129.567782,9.55186364 L129.271067,9.84981818 L129.271067,10.4457273 L129.567782,10.4457273 L129.866543,9.25322727 L129.567782,8.95595455 L129.271067,8.95595455 Z M133.443489,1.50709091 L135.529359,3.29481818 C135.529359,2.69890909 135.72785,2.40163636 136.126198,2.40163636 L136.423595,2.40163636 L140.597381,13.1273182 L140.597381,13.7225455 L140.299302,13.7225455 L139.702462,11.9355 L139.405066,11.9355 L139.405066,12.5314091 L141.491618,17.5966364 L141.789696,17.5966364 C142.583664,12.4318636 143.729596,7.03936364 145.225447,1.41981818 L146.119684,2.01504545 L147.014603,1.71777273 L148.802394,2.61095455 L148.802394,2.90959091 C148.206918,2.90959091 147.908839,3.30709091 147.908839,4.10072727 L148.206918,4.10072727 L148.504315,4.39868182 L148.802394,4.39868182 L149.101155,2.90959091 L149.69663,2.90959091 L149.69663,3.20754545 L149.399233,3.5055 L149.69663,3.80277273 L149.69663,4.10072727 C148.200097,8.69277273 146.856355,15.2764091 145.664039,23.8523182 L145.068564,23.8523182 L145.664039,19.0857273 C145.267056,19.0857273 144.670216,20.973 143.876248,24.7468636 C143.139578,25.3427727 142.443833,25.6400455 141.789696,25.6400455 L141.789696,26.2366364 L141.491618,26.2366364 C141.491618,25.8391364 141.094634,25.6400455 140.299302,25.6400455 L140.299302,23.5550455 C140.299302,22.6557273 138.310973,17.6900455 134.337043,8.65731818 L134.038964,8.65731818 C133.244997,12.1986818 132.549252,16.9652727 131.952412,22.9598182 L131.655698,22.6611818 C130.463382,23.0116364 129.866543,23.5093636 129.866543,24.1509545 L129.271067,24.1509545 C128.872719,23.4036818 128.674227,22.1123182 128.674227,20.2775455 L128.375466,20.2775455 L128.375466,22.9598182 L127.779991,22.9598182 L127.48123,21.4693636 C127.48123,16.0714091 128.674227,9.51640909 131.058858,1.80504545 L133.443489,1.50709091 Z" id="Fill-15"></path>
                    <path d="M169.478834,12.8989091 L167.987758,17.6661818 L167.987758,17.9641364 L168.286519,17.9641364 L169.776231,13.4948182 L169.776231,12.8989091 L169.478834,12.8989091 Z M167.390918,10.5152727 L167.094203,14.0914091 L167.689679,14.0914091 L167.689679,13.1968636 L167.987758,12.0050455 L167.689679,10.5152727 L167.390918,10.5152727 Z M166.497364,14.9845909 L165.901888,16.1770909 L166.198603,16.1770909 L166.795442,14.9845909 L166.497364,14.9845909 Z M164.709573,20.3477727 C165.176813,20.2775455 165.872558,19.6816364 166.795442,18.5600455 L166.795442,18.2620909 L164.709573,20.3477727 Z M164.709573,6.34459091 L164.709573,6.64254545 L165.901888,7.23845455 L165.901888,6.9405 L165.007651,6.34459091 L164.709573,6.34459091 Z M157.853759,22.1355 L157.853759,22.4327727 L159.046074,22.4327727 L160.535787,21.8375455 L160.535787,21.5395909 L160.23839,21.5395909 L157.853759,22.1355 Z M158.747996,6.34459091 C158.747996,6.74209091 158.351012,6.9405 157.55568,6.9405 C156.760349,10.5623182 156.164191,14.733 155.767207,19.4539091 C156.924053,19.4539091 159.905524,18.4605 164.709573,16.4743636 L164.709573,16.1770909 L164.112733,16.1770909 C165.702032,14.5523182 166.497364,12.8641364 166.497364,11.1111818 L166.497364,10.2173182 C166.497364,8.03277273 165.007651,6.74209091 162.026181,6.34459091 L158.747996,6.34459091 Z M155.469128,22.4327727 L155.767207,23.3273182 L156.362683,23.3273182 L156.959523,22.7314091 L156.959523,22.4327727 L156.661444,22.4327727 L155.767207,22.7314091 L155.469128,22.4327727 Z M153.978052,4.25890909 L152.489022,12.8989091 L152.489022,13.1968636 L152.785737,13.1968636 L154.276813,4.85481818 L154.276813,4.25890909 L153.978052,4.25890909 Z M152.190261,24.2211818 L152.489022,24.2211818 L152.489022,24.5191364 L151.892182,25.1150455 L151.593421,25.1150455 L151.593421,24.8164091 L152.190261,24.2211818 Z M155.170367,1.27936364 L156.362683,1.27936364 L157.256919,1.87527273 L159.344835,1.57731818 C162.792182,1.57731818 165.97078,3.56413636 168.881994,7.53640909 L170.373071,10.5152727 L170.07431,10.8132273 L170.373071,12.3036818 L170.373071,13.7934545 C170.373071,18.8989091 166.198603,22.7723182 157.853759,25.413 L154.872288,25.7109545 C154.872288,25.2084545 154.475305,24.9098182 153.679973,24.8164091 L153.679973,26.0095909 L152.785737,26.0095909 L152.785737,24.2211818 L152.489022,23.9232273 L152.785737,23.6252727 L152.785737,23.3273182 C151.593421,22.5098182 150.997946,21.8136818 150.997946,21.2416364 C151.593421,12.2450455 152.587245,5.69072727 153.978052,1.57731818 L154.276813,1.57731818 L154.574892,1.87527273 L155.170367,1.27936364 Z" id="Fill-17"></path>
                    <path d="M188.312643,22.3458409 L188.312643,22.94175 L188.610722,24.1335682 L188.909482,24.1335682 L188.909482,23.5376591 L188.610722,22.3458409 L188.312643,22.3458409 Z M185.332536,23.2397045 L185.332536,23.8362955 L186.226091,23.5376591 L186.226091,22.94175 L185.332536,23.2397045 Z M184.140221,20.2594773 L184.735696,20.2594773 L184.735696,22.0478864 L184.436936,22.0478864 L184.140221,20.2594773 Z M179.966435,13.7051591 L179.966435,14.0037955 L180.563275,14.0037955 C182.351066,13.8047045 183.245984,13.50675 183.245984,13.10925 L182.947906,13.10925 L179.966435,13.7051591 Z M181.75559,6.85288636 L179.370959,13.10925 L179.966435,13.10925 C181.954082,13.10925 183.046128,12.5140227 183.245984,11.3215227 L182.053669,6.85288636 L181.75559,6.85288636 Z M179.072198,8.63993182 L178.476723,10.7256136 L178.178644,10.4283409 L177.879883,10.4283409 L178.178644,11.6201591 L178.476723,11.6201591 L179.370959,8.93788636 L179.370959,8.63993182 L179.072198,8.63993182 Z M177.583168,12.5140227 L177.284407,13.7051591 L177.583168,13.7051591 L177.879883,13.4072045 L177.879883,12.5140227 L177.583168,12.5140227 Z M175.793331,11.3215227 L175.495252,11.6201591 L175.495252,12.2160682 L175.793331,12.2160682 L176.092092,11.3215227 L175.793331,11.3215227 Z M174.899777,12.8119773 L174.601016,14.0037955 L174.899777,14.0037955 L175.495252,12.8119773 L174.899777,12.8119773 Z M183.543381,-6.81818183e-05 C183.672298,0.595840909 184.466266,0.893795455 185.928012,0.893795455 L188.312643,11.3215227 L190.399195,11.3215227 L190.399195,11.6201591 L188.610722,11.9181136 L188.610722,12.2160682 C189.206879,12.2160682 189.504958,12.4151591 189.504958,12.8119773 L191.889589,12.8119773 L191.889589,13.10925 C191.889589,13.5537955 190.895765,13.9506136 188.909482,14.3010682 L189.504958,16.0887955 L189.206879,16.9833409 L189.504958,18.7703864 L189.206879,19.0683409 L189.504958,19.0683409 L189.206879,19.3669773 L189.504958,22.94175 L189.504958,24.7294773 L189.206879,24.4322045 L188.909482,24.4322045 L189.803719,28.9008409 L189.206879,28.9008409 C189.206879,28.30425 189.008387,28.0069773 188.610722,28.0069773 L188.610722,28.30425 L188.909482,29.1987955 L188.610722,29.1987955 L188.312643,28.9008409 L188.014564,28.9008409 C188.014564,29.49675 187.81539,29.7947045 187.418406,29.7947045 L185.928012,24.7294773 L185.629251,24.7294773 L185.629251,25.9206136 L185.332536,25.9206136 L184.735696,22.3458409 L185.629251,22.94175 L185.629251,22.6437955 C185.465546,20.8553864 185.168832,19.9622045 184.735696,19.9622045 L185.033775,19.66425 L185.033775,18.7703864 L184.436936,18.7703864 L184.436936,19.66425 L184.140221,19.66425 L184.140221,18.4724318 L184.436936,18.1744773 L184.140221,18.1744773 L183.84146,18.4724318 L183.84146,17.2806136 L184.140221,17.2806136 L184.436936,17.57925 L184.735696,17.57925 L184.436936,17.2806136 L184.436936,15.4928864 L177.879883,16.9833409 L177.879883,17.57925 L179.966435,16.9833409 L181.15875,17.2806136 L182.649145,16.9833409 L182.649145,17.57925 C178.476723,18.3265227 176.390171,19.3199318 176.390171,20.5581136 C175.86427,22.7433409 175.26743,24.1335682 174.601016,24.7294773 L174.601016,25.3253864 L173.707461,25.3253864 L173.4087,25.0274318 L173.110621,25.0274318 L173.110621,25.3253864 L172.216385,24.7294773 L172.813225,22.94175 L172.515146,22.94175 C171.91967,22.94175 171.620909,23.7360682 171.620909,25.3253864 L171.024069,24.7294773 L171.32283,22.94175 L170.428594,22.0478864 L175.495252,9.83175 L175.793331,9.83175 C175.793331,10.4283409 175.992505,10.7256136 176.390171,10.7256136 L176.687568,9.23584091 L176.390171,9.53447727 L176.092092,9.53447727 L176.092092,8.34197727 L176.390171,6.85288636 L176.687568,7.15084091 L176.986329,7.15084091 L176.687568,6.85288636 L176.687568,6.55493182 L177.284407,5.36311364 L177.583168,5.36311364 L177.879883,5.66038636 L178.178644,5.66038636 L178.178644,5.36311364 C178.178644,4.96629545 177.879883,4.76720455 177.284407,4.76720455 L178.77412,0.595840909 L179.966435,0.595840909 L179.669038,0.893795455 L179.669038,1.19175 C181.04825,0.397431818 182.338788,-6.81818183e-05 183.543381,-6.81818183e-05 L183.543381,-6.81818183e-05 Z" id="Fill-19"></path>
                </g>
            </g>
        </g>
    </g>
</svg>